<?xml version="1.0" encoding="UTF-8" standalone="no"?><svg xmlns="http://www.w3.org/2000/svg" xmlns:xlink="http://www.w3.org/1999/xlink" clip-rule="evenodd" stroke-miterlimit="4.00" viewBox="0 0 46 46"><desc>SVG generated by Keynote</desc><defs></defs><g transform="matrix(1.00, 0.00, -0.00, -1.00, 0.0, 46.0)"><path d="M 36.6 37.1 C 44.5 29.3 44.5 16.7 36.6 8.9 C 28.8 1.0 16.2 1.0 8.4 8.9 C 0.5 16.7 0.5 29.3 8.4 37.1 C 16.2 45.0 28.8 45.0 36.6 37.1 Z M 36.6 37.1 " fill="#EC3F35"></path><path d="M 34.1 5.9 C 42.0 13.7 42.0 26.3 34.1 34.1 C 26.3 42.0 13.7 42.0 5.9 34.1 C -2.0 26.3 -2.0 13.7 5.9 5.9 C 13.7 -2.0 26.3 -2.0 34.1 5.9 Z M 34.1 5.9 " fill="none" stroke="#002451" stroke-width="3.00" transform="matrix(1.00, 0.00, 0.00, -1.00, 2.5, 43.0)"></path></g></svg>